<svg width="18" height="19" viewBox="0 0 18 19" fill="none" xmlns="http://www.w3.org/2000/svg">
<g id="&#240;&#159;&#166;&#134; icon &#34;search normal 1&#34;">
<g id="Group">
<path id="Vector" d="M8.58224 17.867C3.85154 17.867 0 13.8578 0 8.93349C0 4.00917 3.85154 0 8.58224 0C13.3129 0 17.1645 4.00917 17.1645 8.93349C17.1645 13.8578 13.3129 17.867 8.58224 17.867ZM8.58224 1.30734C4.53812 1.30734 1.25594 4.73257 1.25594 8.93349C1.25594 13.1344 4.53812 16.5596 8.58224 16.5596C12.6264 16.5596 15.9085 13.1344 15.9085 8.93349C15.9085 4.73257 12.6264 1.30734 8.58224 1.30734Z" fill="#3A3A3A"/>
<path id="Vector_2" d="M17.3747 18.7387C17.2156 18.7387 17.0565 18.6777 16.9309 18.547L15.2563 16.8038C15.0135 16.5511 15.0135 16.1327 15.2563 15.88C15.4991 15.6272 15.901 15.6272 16.1439 15.88L17.8184 17.6231C18.0613 17.8759 18.0613 18.2942 17.8184 18.547C17.6928 18.6777 17.5338 18.7387 17.3747 18.7387Z" fill="#3A3A3A"/>
</g>
</g>
</svg>
